<?xml version="1.0" encoding="iso-8859-1"?>
<!-- Uploaded to: SVG Repo, www.svgrepo.com, Generator: SVG Repo Mixer Tools -->
<svg version="1.1" id="Layer_1" xmlns="http://www.w3.org/2000/svg" xmlns:xlink="http://www.w3.org/1999/xlink" 
	 viewBox="0 0 296.201 296.201" xml:space="preserve">
<g>
	<path style="fill:#333E48;" d="M67.638,61.574c-1.381,0-2.5-1.119-2.5-2.5V43.431c0-1.381,1.119-2.5,2.5-2.5h44.089
		c1.381,0,2.5,1.119,2.5,2.5s-1.119,2.5-2.5,2.5H70.138v13.142C70.138,60.455,69.019,61.574,67.638,61.574z"/>
	<path style="fill:#3E4A57;" d="M267.201,55.931H118.1c-6.903,0-12.5-5.598-12.5-12.5c0-6.904,5.597-12.5,12.5-12.5h149.102
		c6.903,0,12.5,5.596,12.5,12.5C279.701,50.333,274.104,55.931,267.201,55.931z"/>
	<path style="fill:#3E4A57;" d="M191.21,262.076c-1.03,0-2.077-0.129-3.121-0.397c-6.686-1.719-10.713-8.533-8.994-15.219
		l76-206.143c1.72-6.686,8.534-10.713,15.219-8.994c6.686,1.719,10.713,8.533,8.994,15.219l-76,206.143
		C201.857,258.326,196.778,262.076,191.21,262.076z"/>
	<g>
		<path style="fill:#DFCAA3;" d="M93.591,133.729c0-14.338-11.62-25.956-25.955-25.956c-14.333,0-25.952,11.62-25.952,25.956
			c0,14.333,11.618,25.952,25.953,25.952C81.971,159.682,93.591,148.061,93.591,133.729z"/>
		<rect x="44.665" y="53.455" style="fill:#77B8E8;" width="45.944" height="31.783"/>
		<path style="fill:#009BDE;" d="M135.275,136.983c0.001-37.355-30.282-67.637-67.638-67.638C30.283,69.346,0,99.63,0,136.983
			H135.275z"/>
	</g>
	<g>
		<circle style="fill:#5C6670;" cx="267.201" cy="43.431" r="29"/>
		<circle style="fill:#333E48;" cx="267.201" cy="43.431" r="18.229"/>
	</g>
	<path style="fill:#009BDE;" d="M268.07,281.77c0-20.912-16.951-37.863-37.862-37.863h-76.015
		c-20.911,0-37.862,16.951-37.862,37.863H268.07z"/>
</g>
</svg>